<svg xmlns="http://www.w3.org/2000/svg" viewBox="0 0 1180 610" width="100%" height="100%">
  <defs>
    <!-- Background Noise & Blur -->
    <filter id="noise">
      <feTurbulence type="fractalNoise" baseFrequency="0.65" numOctaves="3" stitchTiles="stitch" />
      <feColorMatrix type="matrix" values="1 0 0 0 0, 0 1 0 0 0, 0 0 1 0 0, 0 0 0 0.03 0" />
    </filter>
    <filter id="glow">
      <feGaussianBlur stdDeviation="3" result="coloredBlur"/>
      <feMerge>
        <feMergeNode in="coloredBlur"/>
        <feMergeNode in="SourceGraphic"/>
      </feMerge>
    </filter>

    <!-- Gradients -->
    <linearGradient id="bg-grad" x1="0%" y1="0%" x2="100%" y2="100%">
      <stop offset="0%" stop-color="#FFFFFF" />
      <stop offset="100%" stop-color="#F1F5F9" />
    </linearGradient>
    <linearGradient id="accent-grad" x1="0%" y1="0%" x2="100%" y2="0%">
      <stop offset="0%" stop-color="#2563EB">
        <animate attributeName="stop-color" values="#2563EB;#06B6D4;#10B981;#2563EB" dur="8s" repeatCount="indefinite" />
      </stop>
      <stop offset="50%" stop-color="#06B6D4">
        <animate attributeName="stop-color" values="#06B6D4;#10B981;#2563EB;#06B6D4" dur="8s" repeatCount="indefinite" />
      </stop>
      <stop offset="100%" stop-color="#10B981">
        <animate attributeName="stop-color" values="#10B981;#2563EB;#06B6D4;#10B981" dur="8s" repeatCount="indefinite" />
      </stop>
    </linearGradient>
    <linearGradient id="ascii-grad" x1="0%" y1="0%" x2="0%" y2="100%">
      <stop offset="0%" stop-color="#2563EB">
        <animate attributeName="stop-color" values="#2563EB;#06B6D4;#2563EB" dur="4s" repeatCount="indefinite" />
      </stop>
      <stop offset="100%" stop-color="#06B6D4">
        <animate attributeName="stop-color" values="#06B6D4;#2563EB;#06B6D4" dur="4s" repeatCount="indefinite" />
      </stop>
    </linearGradient>
    
    <radialGradient id="float-glow-1" cx="20%" cy="30%" r="40%">
      <stop offset="0%" stop-color="#2563EB" stop-opacity="0.08" />
      <stop offset="100%" stop-color="#FFFFFF" stop-opacity="0" />
    </radialGradient>
    <radialGradient id="float-glow-2" cx="80%" cy="70%" r="40%">
      <stop offset="0%" stop-color="#10B981" stop-opacity="0.06" />
      <stop offset="100%" stop-color="#FFFFFF" stop-opacity="0" />
    </radialGradient>

    <!-- Clip Paths & Masks -->
    <clipPath id="panel-clip">
      <rect width="690" height="550" rx="16" />
    </clipPath>
    <clipPath id="typing-mask">
      <rect x="0" y="-20" width="0" height="40">
        <animate attributeName="width" values="0;280;280;0;0" keyTimes="0;0.3;0.7;0.9;1" dur="6s" repeatCount="indefinite" />
      </rect>
    </clipPath>
    <clipPath id="typing-mask-2">
      <rect x="0" y="-20" width="0" height="40">
        <animate attributeName="width" values="0;0;0;280;280;0" keyTimes="0;0.3;0.4;0.7;0.9;1" dur="6s" repeatCount="indefinite" />
      </rect>
    </clipPath>
  </defs>

  <style>
    .font-sans { font-family: -apple-system, BlinkMacSystemFont, "Segoe UI", Roboto, Helvetica, Arial, sans-serif; }
    .font-mono { font-family: "Fira Code", "SF Mono", Monaco, Consolas, monospace; }
    .text-primary { fill: #0F172A; }
    .text-muted { fill: #475569; }
    .pill { transition: all 0.3s ease; cursor: pointer; }
    .pill:hover rect { stroke: #06B6D4; stroke-width: 1.5; filter: url(#glow); transform: scale(1.05); transform-origin: center; background: #FFF; }
    .pill:hover text { fill: #0F172A; }
    .social-icon { fill: #64748B; transition: all 0.3s ease; cursor: pointer; }
    .social-icon:hover { fill: #2563EB; filter: url(#glow); }
  </style>

  <!-- Background -->
  <rect width="1180" height="610" rx="24" fill="url(#bg-grad)" />
  <rect width="1180" height="610" rx="24" fill="url(#noise)" opacity="0.6" pointer-events="none" />
  
  <!-- Floating Orbs -->
  <circle cx="200" cy="150" r="250" fill="url(#float-glow-1)">
    <animateTransform attributeName="transform" type="translate" values="0,0; 30,20; -20,40; 0,0" dur="10s" repeatCount="indefinite" />
  </circle>
  <circle cx="900" cy="450" r="300" fill="url(#float-glow-2)">
    <animateTransform attributeName="transform" type="translate" values="0,0; -40,-30; 20,-50; 0,0" dur="12s" repeatCount="indefinite" />
  </circle>

  <!-- ================= LEFT SIDE: ASCII PORTRAIT ================= -->
  <g transform="translate(30, 30)">
    <rect width="420" height="550" rx="16" fill="#FFFFFF" fill-opacity="0.8" stroke="rgba(15,23,42,0.08)" style="filter: drop-shadow(0 10px 15px rgba(0,0,0,0.05));" />
    
    <!-- Floating Group -->
    <g transform="translate(0,0)">
      <animateTransform attributeName="transform" type="translate" values="0,0; 0,-8; 0,0" dur="4s" repeatCount="indefinite" />
      
      <text class="font-mono" x="210" y="70" font-size="10" text-anchor="middle" font-weight="bold" letter-spacing="2" fill="url(#ascii-grad)">
        <tspan x="210" dy="12">@@@@@@@@@@@@@@@@@@@@@@@@@@@@@@@@</tspan>
        <tspan x="210" dy="12">@@@@@@@@@@@@@@@@@@@@@@@@@@@@@@@@</tspan>
        <tspan x="210" dy="12">@@@@@@@@##%****%%%#*++===--::.  </tspan>
        <tspan x="210" dy="12">@@@@@#*++===-------:::::....... </tspan>
        <tspan x="210" dy="12">@@@@*==----:::::::::........... </tspan>
        <tspan x="210" dy="12">@@@*---:::::::............      </tspan>
        <tspan x="210" dy="12">@@@:::::::.........      ...    </tspan>
        <tspan x="210" dy="12">@@#::::::......      ..     ..  </tspan>
        <tspan x="210" dy="12">@@+::::.....     ......     ....</tspan>
        <tspan x="210" dy="12">@@+::.....     ..........   ....</tspan>
        <tspan x="210" dy="12">@@+::....     ............  ....</tspan>
        <tspan x="210" dy="12">@@=::...     ....:::::::..  ....</tspan>
        <tspan x="210" dy="12">@@=::...    ...::--====-:.  ....</tspan>
        <tspan x="210" dy="12">@@=::...    ..::-==++==--:. ....</tspan>
        <tspan x="210" dy="12">@@=::...    ..::-==++==--:......</tspan>
        <tspan x="210" dy="12">@@=::...    ..::-======--:......</tspan>
        <tspan x="210" dy="12">@@=::...    ...:-------::.......</tspan>
        <tspan x="210" dy="12">@@+::....    ....::::::........ </tspan>
        <tspan x="210" dy="12">@@#::.....    ................  </tspan>
        <tspan x="210" dy="12">@@@:::......    ............    </tspan>
        <tspan x="210" dy="12">@@@#:::.......     ......       </tspan>
        <tspan x="210" dy="12">@@@@+::::.......                </tspan>
        <tspan x="210" dy="12">@@@@@+:::::........          ...</tspan>
        <tspan x="210" dy="12">@@@@@@*:::::::.......   ........</tspan>
        <tspan x="210" dy="12">@@@@@@@+:::::::::...............</tspan>
        <tspan x="210" dy="12">@@@@@@@@*::::::::::.............</tspan>
        <tspan x="210" dy="12">@@@@@@@@@+:::::::::::...........</tspan>
        <tspan x="210" dy="12">@@@@@@@@@@+::::::::::::.........</tspan>
        <tspan x="210" dy="12">@@@@@@@@@@@=:::::::::::::.......</tspan>
        <tspan x="210" dy="12">@@@@@@@@@@@@-:::::::::::::::....</tspan>
        <animate attributeName="opacity" values="0;1" dur="2s" fill="freeze" />
      </text>
    </g>

    <!-- Scanline Effect -->
    <rect x="0" y="0" width="420" height="2" fill="#06B6D4" opacity="0.3">
      <animate attributeName="y" values="0;550;0" dur="4s" repeatCount="indefinite" />
    </rect>
  </g>

  <!-- ================= RIGHT SIDE: TERMINAL ================= -->
  <g transform="translate(470, 30)">
    <!-- Glass Panel Base -->
    <rect width="680" height="550" rx="16" fill="#F8FAFC" fill-opacity="0.8" stroke="rgba(15,23,42,0.08)" stroke-width="1.5" style="filter: drop-shadow(0 10px 15px rgba(0,0,0,0.03));" />
    
    <!-- Terminal Header -->
    <g transform="translate(20, 20)">
      <circle cx="10" cy="10" r="6" fill="#EF4444" />
      <circle cx="30" cy="10" r="6" fill="#EAB308" />
      <circle cx="50" cy="10" r="6" fill="#22C55E" />
      <text x="340" y="14" class="font-mono text-muted" font-size="12" text-anchor="middle">ananthakrishna@portfolio ~ zsh</text>
    </g>

    <line x1="0" y1="50" x2="680" y2="50" stroke="rgba(15,23,42,0.06)" stroke-width="1" />

    <!-- Terminal Content -->
    <g transform="translate(40, 100)">
      <!-- Greeting -->
      <text class="font-sans text-primary" font-size="36" font-weight="bold" x="0" y="0">
        Hi 👋 I'm Ananthakrishna B
        <animate attributeName="opacity" values="0;1" dur="1s" fill="freeze" />
      </text>

      <!-- Animated Typing Role -->
      <g transform="translate(0, 45)">
        <text class="font-mono" font-size="24" fill="url(#accent-grad)" font-weight="bold">
          > <tspan clip-path="url(#typing-mask)">Full Stack Developer</tspan>
            <tspan x="20" clip-path="url(#typing-mask-2)">AI &amp; ML Enthusiast</tspan>
        </text>
        <!-- Blinking Cursor -->
        <rect x="300" y="-20" width="12" height="28" fill="#2563EB">
          <animate attributeName="opacity" values="1;0;1" dur="0.8s" repeatCount="indefinite" />
          <animate attributeName="x" values="30;280;280;30;30" keyTimes="0;0.3;0.7;0.9;1" dur="6s" repeatCount="indefinite" />
        </rect>
      </g>

      <!-- Details List -->
      <g class="font-sans text-muted" font-size="15" transform="translate(0, 110)">
        <g opacity="0"><text y="0">📍 Location: Kollam, Kerala, India</text><animate attributeName="opacity" values="0;1" begin="0.5s" dur="0.5s" fill="freeze"/></g>
        <g opacity="0"><text y="30">🎓 Education: MCA @ Rajiv Gandhi Institute of Technology</text><animate attributeName="opacity" values="0;1" begin="0.8s" dur="0.5s" fill="freeze"/></g>
        <g opacity="0"><text y="60">🎯 Current Focus: AI-powered applications &amp; Sentiment Analysis</text><animate attributeName="opacity" values="0;1" begin="1.1s" dur="0.5s" fill="freeze"/></g>
        <g opacity="0"><text y="90">✉️ Email: ananthakrishna5005@gmail.com</text><animate attributeName="opacity" values="0;1" begin="1.4s" dur="0.5s" fill="freeze"/></g>
      </g>

      <!-- Skills Section -->
      <g transform="translate(0, 260)">
        <text class="font-sans text-primary" font-size="18" font-weight="bold" y="0">Tech Arsenal</text>
        
        <g transform="translate(0, 20)">
          <!-- Row 1 -->
          <g class="pill" transform="translate(0, 0)">
            <rect width="90" height="32" rx="16" fill="#F1F5F9" stroke="rgba(15,23,42,0.1)" stroke-width="1"/>
            <text class="font-sans text-muted" font-size="14" font-weight="500" x="45" y="21" text-anchor="middle">React.js</text>
          </g>
          <g class="pill" transform="translate(100, 0)">
            <rect width="90" height="32" rx="16" fill="#F1F5F9" stroke="rgba(15,23,42,0.1)" stroke-width="1"/>
            <text class="font-sans text-muted" font-size="14" font-weight="500" x="45" y="21" text-anchor="middle">Next.js</text>
          </g>
          <g class="pill" transform="translate(200, 0)">
            <rect width="90" height="32" rx="16" fill="#F1F5F9" stroke="rgba(15,23,42,0.1)" stroke-width="1"/>
            <text class="font-sans text-muted" font-size="14" font-weight="500" x="45" y="21" text-anchor="middle">Node.js</text>
          </g>
          <g class="pill" transform="translate(300, 0)">
            <rect width="110" height="32" rx="16" fill="#F1F5F9" stroke="rgba(15,23,42,0.1)" stroke-width="1"/>
            <text class="font-sans text-muted" font-size="14" font-weight="500" x="55" y="21" text-anchor="middle">TypeScript</text>
          </g>
          <g class="pill" transform="translate(420, 0)">
            <rect width="80" height="32" rx="16" fill="#F1F5F9" stroke="rgba(15,23,42,0.1)" stroke-width="1"/>
            <text class="font-sans text-muted" font-size="14" font-weight="500" x="40" y="21" text-anchor="middle">Python</text>
          </g>
          
          <!-- Row 2 -->
          <g class="pill" transform="translate(0, 42)">
            <rect width="90" height="32" rx="16" fill="#F1F5F9" stroke="rgba(15,23,42,0.1)" stroke-width="1"/>
            <text class="font-sans text-muted" font-size="14" font-weight="500" x="45" y="21" text-anchor="middle">PyTorch</text>
          </g>
          <g class="pill" transform="translate(100, 42)">
            <rect width="90" height="32" rx="16" fill="#F1F5F9" stroke="rgba(15,23,42,0.1)" stroke-width="1"/>
            <text class="font-sans text-muted" font-size="14" font-weight="500" x="45" y="21" text-anchor="middle">OpenCV</text>
          </g>
          <g class="pill" transform="translate(200, 42)">
            <rect width="80" height="32" rx="16" fill="#F1F5F9" stroke="rgba(15,23,42,0.1)" stroke-width="1"/>
            <text class="font-sans text-muted" font-size="14" font-weight="500" x="40" y="21" text-anchor="middle">YOLO</text>
          </g>
          <g class="pill" transform="translate(290, 42)">
            <rect width="100" height="32" rx="16" fill="#F1F5F9" stroke="rgba(15,23,42,0.1)" stroke-width="1"/>
            <text class="font-sans text-muted" font-size="14" font-weight="500" x="50" y="21" text-anchor="middle">Tailwind</text>
          </g>
          <g class="pill" transform="translate(400, 42)">
            <rect width="100" height="32" rx="16" fill="#F1F5F9" stroke="rgba(15,23,42,0.1)" stroke-width="1"/>
            <text class="font-sans text-muted" font-size="14" font-weight="500" x="50" y="21" text-anchor="middle">Groq LLM</text>
          </g>
        </g>
      </g>
      
      <!-- Socials -->
      <g transform="translate(0, 390)">
        <line x1="0" y1="0" x2="600" y2="0" stroke="rgba(15,23,42,0.06)" stroke-width="1" />
        <g transform="translate(0, 20)">
          <path class="social-icon" d="M12 0c-6.626 0-12 5.373-12 12 0 5.302 3.438 9.8 8.207 11.387.599.111.793-.261.793-.577v-2.234c-3.338.726-4.033-1.416-4.033-1.416-.546-1.387-1.333-1.756-1.333-1.756-1.089-.745.083-.729.083-.729 1.205.084 1.839 1.237 1.839 1.237 1.07 1.834 2.807 1.304 3.492.997.107-.775.418-1.305.762-1.604-2.665-.305-5.467-1.334-5.467-5.931 0-1.311.469-2.381 1.236-3.221-.124-.303-.535-1.524.117-3.176 0 0 1.008-.322 3.301 1.23.957-.266 1.983-.399 3.003-.404 1.02.005 2.047.138 3.006.404 2.291-1.552 3.297-1.23 3.297-1.23.653 1.653.242 2.874.118 3.176.77.84 1.235 1.911 1.235 3.221 0 4.609-2.807 5.624-5.479 5.921.43.372.823 1.102.823 2.222v3.293c0 .319.192.694.801.576 4.765-1.589 8.199-6.086 8.199-11.386 0-6.627-5.373-12-12-12z" transform="scale(1.2)" />
          <path class="social-icon" d="M19 0h-14c-2.761 0-5 2.239-5 5v14c0 2.761 2.239 5 5 5h14c2.762 0 5-2.239 5-5v-14c0-2.761-2.238-5-5-5zm-11 19h-3v-11h3v11zm-1.5-12.268c-.966 0-1.75-.79-1.75-1.764s.784-1.764 1.75-1.764 1.75.79 1.75 1.764-.783 1.764-1.75 1.764zm13.5 12.268h-3v-5.604c0-3.368-4-3.113-4 0v5.604h-3v-11h3v1.765c1.396-2.586 7-2.777 7 2.476v6.759z" transform="translate(45, 0) scale(1.2)" />
          <path class="social-icon" d="M24 4.557c-.883.392-1.832.656-2.828.775 1.017-.609 1.798-1.574 2.165-2.724-.951.564-2.005.974-3.127 1.195-.897-.957-2.178-1.555-3.594-1.555-3.179 0-5.515 2.966-4.797 6.045-4.091-.205-7.719-2.165-10.148-5.144-1.29 2.213-.669 5.108 1.523 6.574-.806-.026-1.566-.247-2.229-.616-.054 2.281 1.581 4.415 3.949 4.89-.693.188-1.452.232-2.224.084.626 1.956 2.444 3.379 4.6 3.419-2.07 1.623-4.678 2.348-7.29 2.04 2.179 1.397 4.768 2.212 7.548 2.212 9.142 0 14.307-7.721 13.995-14.646.962-.695 1.797-1.562 2.457-2.549z" transform="translate(90, 0) scale(1)" />
        </g>
      </g>
    </g>
  </g>
</svg>
